<svg aria-hidden="true" style="position: absolute; width: 0; height: 0; overflow: hidden;" version="1.1" xmlns="http://www.w3.org/2000/svg" xmlns:xlink="http://www.w3.org/1999/xlink">
<defs>
<symbol id="icon-logo" viewBox="0 0 189 32">
<path fill="#1e212c" style="fill: var(--color1, #1e212c)" d="M0 16.145c0-8.873 4.8-14.255 12.655-14.255 5.964 0 10.764 3.636 11.636 9.018 0.145 0.582-0.291 1.018-0.873 1.018h-3.782c-0.436 0-0.727-0.291-0.873-0.727-0.727-2.764-3.055-4.509-6.109-4.509-4.218 0-6.836 3.636-6.836 9.455s2.618 9.455 6.982 9.455c3.055 0 5.236-1.6 6.109-4.218 0.145-0.436 0.436-0.727 0.873-0.727h3.782c0.582 0 1.018 0.582 0.873 1.018-0.873 5.236-5.527 8.727-11.636 8.727-8 0-12.8-5.527-12.8-14.255z"></path>
<path fill="#1e212c" style="fill: var(--color1, #1e212c)" d="M35.345 29.673h-4.218c-0.436 0-0.727-0.291-0.727-0.727v-25.164c0-0.582 0.582-1.164 1.164-1.164h10.182c5.964 0 9.6 3.345 9.6 8.582 0 3.055-1.455 5.818-3.927 7.273-0.582 0.291-0.727 1.018-0.436 1.455l4.509 8.582c0.291 0.436-0.145 1.018-0.582 1.018h-4.8c-0.291 0-0.582-0.145-0.727-0.436l-4.218-8.727c-0.145-0.436-0.582-0.582-1.018-0.582h-3.345c-0.436 0-0.727 0.291-0.727 0.727v8.582c0.145 0.291-0.291 0.582-0.727 0.582zM36.218 14.836c0 0.436 0.291 0.727 0.727 0.727h4.364c2.909 0 4.509-1.6 4.509-4.218s-1.745-4.218-4.509-4.218h-4.218c-0.436 0-0.727 0.291-0.727 0.727v6.982h-0.145z"></path>
<path fill="#1e212c" style="fill: var(--color1, #1e212c)" d="M74.909 29.673h-16c-0.582 0-1.018-0.436-1.018-1.018v-25.018c0-0.582 0.436-1.018 1.018-1.018h16c0.582 0 1.018 0.436 1.018 1.018v2.764c0 0.582-0.436 1.018-1.018 1.018h-10.618c-0.436 0-0.727 0.291-0.727 0.727v4.945c0 0.436 0.291 0.727 0.727 0.727h9.891c0.582 0 1.018 0.436 1.018 1.018v2.473c0 0.582-0.436 1.018-1.018 1.018h-9.891c-0.436 0-0.727 0.291-0.727 0.727v5.527c0 0.436 0.291 0.727 0.727 0.727h10.618c0.582 0 1.018 0.436 1.018 1.018v2.764c0 0.145-0.436 0.582-1.018 0.582z"></path>
<path fill="#1e212c" style="fill: var(--color1, #1e212c)" d="M97.454 23.127h-8.291c-0.436 0-0.727 0.291-0.873 0.582l-1.6 5.382c-0.145 0.436-0.436 0.582-0.873 0.582h-3.782c-0.582 0-1.018-0.582-0.873-1.164l8.727-25.309c0.145-0.291 0.436-0.582 0.873-0.582h5.382c0.436 0 0.727 0.291 0.873 0.582l8.727 25.309c0.145 0.582-0.291 1.164-0.873 1.164h-4.218c-0.436 0-0.727-0.291-0.873-0.582l-1.6-5.382c0-0.291-0.436-0.582-0.727-0.582zM90.327 18.909h5.964c0.291 0 0.436-0.291 0.436-0.582l-3.2-10.182h-0.291l-3.2 10.182c-0.145 0.291 0 0.582 0.291 0.582z"></path>
<path fill="#1e212c" style="fill: var(--color1, #1e212c)" d="M114.909 28.655v-20.655c0-0.436-0.291-0.727-0.727-0.727h-6.4c-0.582 0-1.164-0.436-1.164-1.164v-2.473c0-0.582 0.436-1.164 1.164-1.164h19.782c0.582 0 1.164 0.436 1.164 1.164v2.473c0 0.582-0.436 1.164-1.164 1.164h-6.4c-0.436 0-0.727 0.291-0.727 0.727v20.8c0 0.582-0.436 1.018-1.018 1.018h-3.636c-0.436-0.146-0.873-0.582-0.873-1.164z"></path>
<path fill="#1e212c" style="fill: var(--color1, #1e212c)" d="M150.982 29.673h-16c-0.582 0-1.018-0.436-1.018-1.018v-25.018c0-0.582 0.436-1.018 1.018-1.018h16c0.582 0 1.018 0.436 1.018 1.018v2.764c0 0.582-0.436 1.018-1.018 1.018h-10.618c-0.436 0-0.727 0.291-0.727 0.727v4.945c0 0.436 0.291 0.727 0.727 0.727h9.891c0.582 0 1.018 0.436 1.018 1.018v2.473c0 0.582-0.436 1.018-1.018 1.018h-9.891c-0.436 0-0.727 0.291-0.727 0.727v5.527c0 0.436 0.291 0.727 0.727 0.727h10.618c0.582 0 1.018 0.436 1.018 1.018v2.764c0 0.145-0.436 0.582-1.018 0.582z"></path>
<path fill="#ff3f3a" style="fill: var(--color2, #ff3f3a)" d="M171.2 14.109l-9.018-11.782c-0.582-0.582-1.309-0.873-2.036-0.873s-1.455 0.291-2.036 0.873c-1.018 1.164-1.018 2.909 0 4.073l7.127 9.6-7.127 9.6c-1.018 1.164-1.018 2.909 0 4.073 0.582 0.582 1.309 0.873 2.036 0.873s1.455-0.291 2.036-0.873l9.018-11.782c1.018-0.873 1.018-2.618 0-3.782z"></path>
<path fill="#ff3f3a" style="fill: var(--color2, #ff3f3a)" d="M175.044 14.109l9.018-11.782c0.582-0.582 1.309-0.873 2.036-0.873s1.455 0.291 2.036 0.873c1.018 1.164 1.018 2.909 0 4.073l-7.127 9.6 7.127 9.6c1.018 1.164 1.018 2.909 0 4.073-0.582 0.582-1.309 0.873-2.036 0.873s-1.455-0.291-2.036-0.873l-9.018-11.782c-1.018-0.873-1.018-2.618 0-3.782z"></path>
</symbol>
<symbol id="icon-play-btn" viewBox="0 0 32 32">
<path d="M32 16c0 8.837-7.163 16-16 16s-16-7.163-16-16c0-8.837 7.163-16 16-16s16 7.163 16 16z"></path>
<path fill="#fff" style="fill: var(--color2, #fff)" d="M20 15.467c0.41 0.237 0.41 0.829 0 1.066l-5.538 3.198c-0.41 0.237-0.923-0.059-0.923-0.533v-6.395c0-0.474 0.513-0.77 0.923-0.533l5.538 3.198z"></path>
</symbol>
<symbol id="icon-Star-Stroke" viewBox="0 0 34 32">
<path fill="#ff3f3a" style="fill: var(--color1, #ff3f3a)" d="M14.463 3.13c0.988-2.279 4.219-2.279 5.208 0l2.989 6.893 7.479 0.713c2.472 0.236 3.471 3.309 1.609 4.953l-5.632 4.973 1.633 7.333c0.54 2.424-2.074 4.324-4.213 3.061l-6.47-3.82-6.47 3.82c-2.139 1.263-4.753-0.637-4.213-3.061l1.633-7.333-5.632-4.973c-1.862-1.644-0.863-4.717 1.609-4.953l7.479-0.713 2.989-6.893zM20.055 11.152l-2.989-6.893-2.989 6.893c-0.411 0.948-1.306 1.598-2.335 1.696l-7.479 0.713 5.632 4.973c0.775 0.684 1.116 1.735 0.892 2.744l-1.633 7.333 6.47-3.82c0.89-0.526 1.996-0.526 2.886 0l6.47 3.82-1.633-7.333c-0.225-1.009 0.117-2.060 0.892-2.744l5.632-4.973-7.479-0.713c-1.029-0.098-1.923-0.748-2.334-1.696z"></path>
</symbol>
<symbol id="icon-check" viewBox="0 0 32 32">
<path fill="#ff3f3a" style="fill: var(--color1, #ff3f3a)" d="M16 30.667c8.087 0 14.667-6.579 14.667-14.667 0-1.396-0.195-2.771-0.581-4.089-0.19-0.648-0.866-1.020-1.516-0.83-0.648 0.189-1.019 0.868-0.83 1.516 0.32 1.095 0.482 2.24 0.482 3.403 0 6.739-5.483 12.222-12.222 12.222s-12.222-5.483-12.222-12.222c0-6.739 5.483-12.222 12.222-12.222 2.449 0 4.806 0.716 6.815 2.071 0.559 0.377 1.319 0.229 1.696-0.33s0.23-1.319-0.33-1.697c-2.414-1.628-5.243-2.488-8.181-2.488-8.087 0-14.667 6.579-14.667 14.667s6.58 14.667 14.667 14.667z"></path>
<path fill="#ff3f3a" style="fill: var(--color1, #ff3f3a)" d="M29.723 3.058l-13.724 13.723-4.391-4.39c-0.521-0.521-1.365-0.521-1.885 0s-0.521 1.365 0 1.885l5.333 5.333c0.261 0.261 0.601 0.391 0.943 0.391s0.682-0.13 0.943-0.391l14.667-14.667c0.521-0.521 0.521-1.365 0-1.885s-1.365-0.521-1.885 0z"></path>
</symbol>
<symbol id="icon-profile" viewBox="0 0 32 32">
<path d="M16 4.334c-2.577 0-4.667 2.089-4.667 4.667s2.089 4.667 4.667 4.667c2.577 0 4.667-2.089 4.667-4.667s-2.089-4.667-4.667-4.667zM8.667 9.001c0-4.050 3.283-7.333 7.333-7.333s7.333 3.283 7.333 7.333c0 4.050-3.283 7.333-7.333 7.333s-7.333-3.283-7.333-7.333z"></path>
<path d="M8.139 20.334c-0.924 0-1.647 0.45-1.94 1.097-0.406 0.895-0.774 1.961-0.86 2.971-0.039 0.452 0.15 0.785 0.409 0.946 1.372 0.852 4.552 2.319 10.253 2.319s8.88-1.467 10.253-2.319c0.26-0.161 0.448-0.494 0.409-0.946-0.087-1.011-0.454-2.076-0.86-2.971-0.293-0.647-1.016-1.097-1.94-1.097h-15.723zM3.77 20.329c0.811-1.787 2.621-2.662 4.369-2.662h15.723c1.748 0 3.558 0.875 4.369 2.662 0.466 1.027 0.965 2.407 1.089 3.845 0.112 1.31-0.432 2.677-1.659 3.439-1.805 1.121-5.474 2.721-11.66 2.721s-9.855-1.6-11.66-2.721c-1.227-0.762-1.771-2.13-1.659-3.439 0.123-1.438 0.623-2.818 1.089-3.845z"></path>
</symbol>

</defs>
</svg>
